<svg width="50" height="50" viewBox="0 0 50 50" fill="none" xmlns="http://www.w3.org/2000/svg">
<g clip-path="url(#clip0_7_223)">
<path d="M25 0C11.25 0 0 11.25 0 25C0 38.75 11.25 50 25 50C38.75 50 50 38.75 50 25C50 11.25 38.75 0 25 0ZM35.25 37.5C34.775 37.5 34.4 37.25 33.875 36.825L20.975 26.4L16.65 37.25H12.925L23.85 10.975C24.125 10.275 24.725 9.925 25.425 9.925C26.125 9.925 26.675 10.275 26.975 10.975L36.925 34.925C37.025 35.2 37.1 35.475 37.1 35.65C37.075 36.7 36.25 37.5 35.25 37.5ZM25.425 15.275L31.9 31.25L22.125 23.55L25.425 15.275Z" fill="#7B3C0F"/>
</g>
<defs>
<clipPath id="clip0_7_223">
<rect width="50" height="50" fill="white"/>
</clipPath>
</defs>
</svg>
