<svg width="50" height="50" viewBox="0 0 50 50" fill="none" xmlns="http://www.w3.org/2000/svg">
<path d="M43.9643 11.3651L28.0757 2.72763C27.1511 2.22778 26.0971 1.96411 25.0234 1.96411C23.9498 1.96411 22.8957 2.22778 21.9712 2.72763L6.08926 11.3651C5.14534 11.8813 4.36424 12.6134 3.82264 13.4895C3.28105 14.3657 2.99759 15.3558 3.00009 16.3626V33.6344C2.99423 34.6394 3.27335 35.6285 3.81014 36.5051C4.34693 37.3816 5.123 38.1155 6.06243 38.635L21.9477 47.2725C22.8722 47.7723 23.9263 48.036 25 48.036C26.0736 48.036 27.1277 47.7723 28.0522 47.2725L43.9375 38.635C44.8769 38.1155 45.653 37.3816 46.1898 36.5051C46.7266 35.6285 47.0057 34.6394 46.9998 33.6344V16.3657C47.0082 15.3639 46.7334 14.3771 46.2021 13.5014C45.6707 12.6257 44.901 11.8908 43.9677 11.3681M31.6613 38.3371V39.578C31.6597 39.6544 31.6374 39.7291 31.5964 39.7956C31.5554 39.8621 31.497 39.9182 31.4265 39.9589L30.6249 40.3797C30.4974 40.4412 30.3901 40.3797 30.3901 40.2169V38.9975C29.8222 39.2523 29.1729 39.3101 28.5621 39.1603C28.5122 39.1327 28.4753 39.0891 28.4586 39.038C28.4419 38.987 28.4465 38.932 28.4715 38.8838L28.76 37.7627C28.7755 37.7012 28.8046 37.6433 28.8456 37.5926C28.8866 37.5419 28.9385 37.4994 28.9981 37.4678C29.0389 37.4525 29.0847 37.4525 29.1256 37.4678C29.687 37.6074 30.2858 37.539 30.7926 37.2774C31.1524 37.1165 31.4578 36.8693 31.6764 36.5621C31.8949 36.2549 32.0184 35.8991 32.0336 35.5327C32.0336 34.903 31.6579 34.6419 30.7456 34.6358C29.5918 34.6358 28.5285 34.43 28.4983 32.8727C28.511 32.2058 28.6847 31.5498 29.0072 30.9518C29.3296 30.3538 29.7927 29.8286 30.3632 29.414V28.1577C30.3643 28.0808 30.3863 28.0054 30.4273 27.9384C30.4683 27.8713 30.527 27.8147 30.598 27.7737L31.3728 27.3222C31.5003 27.2608 31.6076 27.3222 31.6076 27.4881V28.7444C32.0826 28.5449 32.6137 28.4859 33.1271 28.5754C33.1802 28.6033 33.2201 28.6484 33.2387 28.7019C33.2573 28.7553 33.2534 28.8132 33.2277 28.8642L32.956 29.9792C32.9217 30.0922 32.8443 30.1903 32.738 30.2556C32.6997 30.2663 32.6588 30.2663 32.6206 30.2556C32.1201 30.1563 31.5972 30.2354 31.1582 30.4768C30.8378 30.6039 30.5635 30.8117 30.3669 31.0759C30.1704 31.3402 30.0598 31.6501 30.0479 31.9696C30.0479 32.5378 30.3767 32.7099 31.4735 32.7314C32.9426 32.7314 33.5765 33.3395 33.5933 34.6911C33.5789 35.3903 33.3987 36.0782 33.0651 36.7073C32.7315 37.3363 32.2525 37.8914 31.6613 38.334M39.9829 36.2453C39.9906 36.2975 39.9836 36.3506 39.9624 36.3995C39.9413 36.4485 39.9068 36.4916 39.8622 36.5248L35.8439 38.761C35.8244 38.7746 35.8012 38.7831 35.7768 38.7855C35.7534 38.7859 35.7303 38.7806 35.7098 38.7702C35.6901 38.757 35.6747 38.7392 35.6652 38.7187C35.6558 38.6981 35.6526 38.6756 35.6561 38.6535V37.7043C35.6604 37.6537 35.6799 37.605 35.7125 37.5639C35.745 37.5227 35.7893 37.4905 35.8406 37.4709L39.7951 35.3023C39.8135 35.2879 39.8364 35.2793 39.8605 35.2777C39.8847 35.276 39.9087 35.2814 39.9293 35.2931C39.9516 35.3054 39.9684 35.3218 39.9796 35.3422C39.9876 35.364 39.9887 35.3875 39.9829 35.4098V36.2453ZM42.7568 15.005L27.7235 23.5134C25.8485 24.527 24.47 25.639 24.47 27.7062V44.6647C24.47 45.9056 25.0234 46.6981 25.8553 46.9407C25.5808 46.9874 25.3026 47.0131 25.0234 47.0175C24.1379 47.0175 23.2726 46.7964 22.5145 46.3817L6.62257 37.7443C5.85222 37.3157 5.21583 36.7121 4.77509 35.992C4.33435 35.272 4.10421 34.4599 4.10696 33.6344V16.3657C4.10305 15.5392 4.33264 14.7258 4.77344 14.0046C5.21423 13.2834 5.85124 12.6788 6.62257 12.2497L22.5145 3.61226C23.2704 3.20192 24.133 2.98539 25.0117 2.98539C25.8904 2.98539 26.753 3.20192 27.5089 3.61226L43.3941 12.2466C44.0411 12.6055 44.5948 13.0894 45.0166 13.6645C45.4383 14.2396 45.7179 14.892 45.8359 15.5763C45.3194 14.5504 44.132 14.2647 42.7501 15.005H42.7568Z" fill="#7B3C0F"/>
</svg>
