<svg width="50" height="50" viewBox="0 0 50 50" fill="none" xmlns="http://www.w3.org/2000/svg">
<g clip-path="url(#clip0_7_274)">
<path d="M34.4837 27.2703C33.6119 27.2728 32.7426 27.178 31.8918 26.9875C32.3877 28.059 32.7669 29.1808 33.0228 30.3334C33.4941 30.3334 33.981 30.3334 34.4837 30.3334C36.0856 30.3309 37.6768 30.071 39.1962 29.5637L37.7354 26.7205C36.6818 27.0519 35.5877 27.2369 34.4837 27.2703Z" fill="#7B3C0F"/>
<path d="M26.3623 24.2224L25.7968 23.6255C24.5704 22.4264 23.6245 20.9708 23.027 19.363C22.4295 17.7552 22.1952 16.0351 22.341 14.3261C22.5014 12.037 23.344 9.8484 24.7601 8.04271L24.6344 10.289C24.6328 10.6823 24.7787 11.0618 25.0434 11.3526C25.3081 11.6435 25.6722 11.8245 26.0639 11.8599H26.2052C26.5985 11.8615 26.978 11.7155 27.2688 11.4508C27.5597 11.1862 27.7407 10.822 27.7761 10.4304L28.3102 4.00565C28.329 3.77812 28.298 3.54923 28.2193 3.33491C28.1406 3.12059 28.0162 2.926 27.8546 2.76468C27.6827 2.62539 27.4832 2.524 27.2694 2.46715C27.0555 2.4103 26.8321 2.39928 26.6136 2.4348L20.1889 2.9846C19.7723 3.02001 19.3868 3.21947 19.1173 3.5391C18.8477 3.85873 18.7162 4.27235 18.7516 4.68896C18.787 5.10558 18.9865 5.49106 19.3061 5.76061C19.6257 6.03016 20.0393 6.1617 20.4559 6.12628L22.4823 5.95349C20.5742 8.34117 19.4496 11.2597 19.2621 14.3104C19.0998 16.4011 19.3905 18.5022 20.1143 20.4704C20.8381 22.4385 21.978 24.2273 23.4563 25.7147L23.9432 26.2959C25.9505 28.3703 27.1054 31.1231 27.1792 34.0088C27.2629 35.3159 27.1248 36.6277 26.7707 37.8887L29.5983 39.3182C30.2065 37.5475 30.447 35.6714 30.3051 33.8045C30.2087 30.2354 28.8057 26.8258 26.3623 24.2224Z" fill="#7B3C0F"/>
<path d="M48.4169 24.2853L46.5162 24.4267C48.2506 22.1819 49.3203 19.4954 49.6037 16.6729C49.887 13.8503 49.3727 11.0048 48.1191 8.46006C46.8656 5.9153 44.9231 3.77335 42.5126 2.27778C40.1021 0.78222 37.3203 -0.00693878 34.4835 4.59666e-05C32.8812 -0.00272235 31.2892 0.257299 29.771 0.769759L31.2005 3.59728C32.9938 3.08939 34.8805 3.0045 36.7122 3.34926C38.5439 3.69403 40.2706 4.45906 41.7566 5.58419C43.2425 6.70931 44.4472 8.16385 45.2758 9.83339C46.1044 11.5029 46.5344 13.342 46.5319 15.2058C46.5314 17.8993 45.6177 20.513 43.94 22.6202L44.0971 20.2011C44.1105 19.9948 44.0831 19.7879 44.0166 19.5922C43.95 19.3965 43.8456 19.2158 43.7092 19.0604C43.5728 18.9051 43.4072 18.7781 43.2217 18.6868C43.0363 18.5955 42.8346 18.5416 42.6283 18.5281C42.4221 18.5147 42.2152 18.5421 42.0194 18.6086C41.8237 18.6752 41.643 18.7796 41.4877 18.916C41.3323 19.0524 41.2054 19.2181 41.114 19.4035C41.0227 19.589 40.9688 19.7906 40.9554 19.9969L40.5156 26.4059C40.5031 26.6332 40.5402 26.8606 40.6243 27.0721C40.7084 27.2837 40.8374 27.4744 41.0025 27.6312C41.1437 27.7745 41.3127 27.8874 41.4991 27.963C41.6854 28.0386 41.8853 28.0754 42.0864 28.071H42.2435L48.6525 27.4113C48.8592 27.3916 49.0599 27.3312 49.2431 27.2336C49.4263 27.1359 49.5883 27.0029 49.7198 26.8422C49.8513 26.6815 49.9496 26.4963 50.0091 26.2974C50.0685 26.0985 50.088 25.8898 50.0663 25.6833C50.0227 25.2834 49.8273 24.9155 49.5204 24.6554C49.2135 24.3953 48.8186 24.2628 48.4169 24.2853Z" fill="#7B3C0F"/>
<path d="M3.91505 28.2596H4.04072L10.4655 27.7098C10.6718 27.6922 10.8726 27.6342 11.0564 27.5391C11.2403 27.444 11.4036 27.3135 11.5371 27.1553C11.6706 26.997 11.7716 26.814 11.8343 26.6167C11.8971 26.4194 11.9203 26.2117 11.9028 26.0054C11.8853 25.7991 11.8273 25.5983 11.7321 25.4144C11.637 25.2306 11.5066 25.0672 11.3483 24.9338C11.19 24.8003 11.007 24.6993 10.8097 24.6366C10.6124 24.5738 10.4047 24.5506 10.1984 24.5681L8.01495 24.7566C10.0716 23.2393 12.5594 22.4193 15.1152 22.416C15.9762 22.4212 16.8343 22.516 17.6756 22.6988C17.1822 21.6278 16.8082 20.5057 16.5603 19.3529C16.0891 19.3529 15.6021 19.3529 15.1152 19.3529C11.7637 19.3479 8.5048 20.4526 5.84719 22.4946L6.03569 20.4368C6.05287 20.2304 6.02905 20.0226 5.96562 19.8254C5.90218 19.6282 5.80037 19.4455 5.66605 19.2879C5.53173 19.1302 5.36756 19.0006 5.18297 18.9066C4.99839 18.8127 4.79704 18.7561 4.59051 18.7403C4.17611 18.7054 3.76481 18.8364 3.44678 19.1043C3.12876 19.3723 2.92997 19.7554 2.894 20.1697L2.34421 26.5788C2.32682 26.7954 2.35457 27.0132 2.42569 27.2186C2.49681 27.4239 2.60976 27.6122 2.75739 27.7717C2.90503 27.9311 3.08414 28.0582 3.28341 28.1449C3.48267 28.2316 3.69775 28.276 3.91505 28.2753V28.2596Z" fill="#7B3C0F"/>
<path d="M26.4566 40.4964L20.0318 40.9206C19.6152 40.9476 19.2264 41.1391 18.951 41.4528C18.6756 41.7666 18.536 42.1769 18.5631 42.5935C18.5902 43.0101 18.7817 43.3989 19.0954 43.6744C19.4091 43.9498 19.8194 44.0893 20.2361 44.0622L22.6552 43.8894C20.8761 45.3193 18.7293 46.2173 16.4621 46.48C14.1948 46.7427 11.8995 46.3595 9.84068 45.3744C7.78182 44.3893 6.04322 42.8424 4.82528 40.9122C3.60733 38.9819 2.95961 36.7468 2.95678 34.4644C2.96809 33.4015 3.1213 32.345 3.41232 31.3227L0.663345 29.8618C0.176706 31.3584 -0.0724149 32.9221 -0.0749512 34.4958C-0.0565207 37.3406 0.757973 40.1235 2.27632 42.5293C3.79466 44.9352 5.95622 46.8679 8.51627 48.1087C11.0763 49.3495 13.9326 49.8488 16.7618 49.55C19.5909 49.2513 22.28 48.1666 24.5245 46.4185L24.336 48.2721C24.3142 48.4774 24.3331 48.6849 24.3916 48.8829C24.4501 49.0809 24.547 49.2654 24.6769 49.4258C24.8067 49.5863 24.9669 49.7196 25.1483 49.8181C25.3297 49.9167 25.5287 49.9785 25.734 50H25.9068C26.2976 50.002 26.675 49.8582 26.9655 49.5968C27.256 49.3354 27.4386 48.9751 27.4776 48.5863L28.1374 42.2086C28.1607 41.9814 28.1342 41.7518 28.0597 41.5358C27.9852 41.3198 27.8644 41.1227 27.7059 40.9582C27.5474 40.7937 27.3549 40.6658 27.1418 40.5833C26.9288 40.5008 26.7003 40.4658 26.4723 40.4807L26.4566 40.4964Z" fill="#7B3C0F"/>
</g>
<defs>
<clipPath id="clip0_7_274">
<rect width="50" height="50" fill="white"/>
</clipPath>
</defs>
</svg>
