<svg width="50" height="50" viewBox="0 0 50 50" fill="none" xmlns="http://www.w3.org/2000/svg">
<path d="M45.4375 21.3542C45.3125 21.2708 44.2708 20.4583 42.0208 20.4583C41.4375 20.4583 40.8542 20.5208 40.2708 20.625C39.8333 17.7083 37.3958 16.2292 37.2917 16.1667L36.6875 15.8125L36.3125 16.375C35.8125 17.125 35.4167 17.9792 35.25 18.8542C34.8333 20.5208 35.0833 22.1042 35.9375 23.4583C34.9167 24.0417 33.25 24.1875 32.8958 24.1875H5.45833C4.75 24.1875 4.16666 24.7708 4.16666 25.5C4.16666 27.8958 4.54166 30.2917 5.375 32.5417C6.3125 35.0208 7.72916 36.8542 9.54166 37.9792C11.5833 39.2292 14.9375 39.9375 18.75 39.9375C20.3958 39.9375 22.1042 39.7917 23.7917 39.4792C26.125 39.0625 28.375 38.25 30.4375 37.0625C32.1456 36.0857 33.6745 34.8246 34.9583 33.3333C37.1458 30.8958 38.4375 28.125 39.375 25.7292H39.7708C42.1458 25.7292 43.625 24.7708 44.4375 23.9583C44.9792 23.4583 45.375 22.8542 45.6667 22.1458L45.8333 21.6458L45.4375 21.3542ZM8.02083 23.4167H11.6875C11.8542 23.4167 12.0208 23.2708 12.0208 23.0833V19.7917C12.0208 19.625 11.875 19.4583 11.6875 19.4583H8.02083C7.83333 19.4583 7.6875 19.6042 7.6875 19.7917V23.0833C7.70833 23.2708 7.83333 23.4167 8.02083 23.4167ZM13.0833 23.4167H16.75C16.9167 23.4167 17.0833 23.2708 17.0833 23.0833V19.7917C17.0833 19.625 16.9375 19.4583 16.75 19.4583H13.0833C12.8958 19.4583 12.75 19.6042 12.75 19.7917V23.0833C12.7708 23.2708 12.8958 23.4167 13.0833 23.4167ZM18.2292 23.4167H21.875C22.0833 23.4167 22.2292 23.2708 22.2292 23.0833V19.7917C22.2292 19.625 22.1042 19.4583 21.875 19.4583H18.2292C18.0625 19.4583 17.9167 19.6042 17.9167 19.7917V23.0833C17.9167 23.2708 18.0417 23.4167 18.2292 23.4167ZM23.3125 23.4167H27C27.1667 23.4167 27.3125 23.2708 27.3125 23.0833V19.7917C27.3125 19.625 27.1875 19.4583 27 19.4583H23.3125C23.1458 19.4583 23 19.6042 23 19.7917V23.0833C23 23.2708 23.1458 23.4167 23.3125 23.4167ZM13.0833 18.75H16.75C16.9167 18.75 17.0833 18.5625 17.0833 18.375V15.1042C17.0833 14.9167 16.9375 14.7708 16.75 14.7708H13.0833C12.8958 14.7708 12.75 14.8958 12.75 15.1042V18.375C12.7708 18.5625 12.8958 18.75 13.0833 18.75ZM18.2292 18.75H21.875C22.0833 18.75 22.2292 18.5625 22.2292 18.375V15.1042C22.2292 14.9167 22.1042 14.7708 21.875 14.7708H18.2292C18.0625 14.7708 17.9167 14.8958 17.9167 15.1042V18.375C17.9167 18.5625 18.0417 18.75 18.2292 18.75ZM23.3125 18.75H27C27.1667 18.75 27.3125 18.5625 27.3125 18.375V15.1042C27.3125 14.9167 27.1667 14.7708 27 14.7708H23.3125C23.1458 14.7708 23 14.8958 23 15.1042V18.375C23 18.5625 23.1458 18.75 23.3125 18.75ZM23.3125 14H27C27.1667 14 27.3125 13.8542 27.3125 13.6667V10.4167C27.3125 10.2083 27.1667 10.0625 27 10.0625H23.3125C23.1458 10.0625 23 10.1875 23 10.4167V13.6667C23 13.8333 23.1458 14 23.3125 14ZM28.4375 23.4167H32.1042C32.2917 23.4167 32.4375 23.2708 32.4375 23.0833V19.7917C32.4375 19.625 32.2917 19.4583 32.1042 19.4583H28.4375C28.2708 19.4583 28.125 19.6042 28.125 19.7917V23.0833C28.125 23.2708 28.2708 23.4167 28.4375 23.4167Z" fill="#7B3C0F"/>
</svg>
