<svg width="49" height="50" viewBox="0 0 49 50" fill="none" xmlns="http://www.w3.org/2000/svg">
<g clip-path="url(#clip0_7_268)">
<path fill-rule="evenodd" clip-rule="evenodd" d="M26.5758 0.860325C26.3033 0.587584 25.9797 0.37122 25.6235 0.223601C25.2673 0.0759811 24.8856 0 24.5 0C24.1145 0 23.7327 0.0759811 23.3765 0.223601C23.0203 0.37122 22.6968 0.587584 22.4242 0.860325L16.3274 6.96154C16.8034 7.41364 17.262 7.8527 17.5011 8.09179L22.3916 12.9823C23.3042 12.5465 24.3295 12.4043 25.3263 12.5753C26.3231 12.7463 27.2423 13.2221 27.9574 13.9373C28.6725 14.6524 29.1484 15.5716 29.3194 16.5684C29.4904 17.5652 29.3482 18.5904 28.9123 19.503L31.6293 22.22C32.6703 21.7225 33.8537 21.6092 34.9702 21.8999C36.0867 22.1906 37.0645 22.8667 37.7307 23.8086C38.3969 24.7506 38.7087 25.8977 38.6108 27.0473C38.513 28.1969 38.0119 29.2749 37.1961 30.0907C36.3802 30.9066 35.3022 31.4077 34.1527 31.5055C33.0031 31.6034 31.8559 31.2916 30.9139 30.6254C29.972 29.9592 29.2959 28.9814 29.0052 27.8649C28.7145 26.7483 28.8279 25.565 29.3253 24.524L26.6084 21.8114C26.453 21.886 26.2933 21.9513 26.1302 22.007V30.1731C27.2185 30.5577 28.1357 31.3146 28.7199 32.3101C29.304 33.3056 29.5174 34.4756 29.3223 35.6132C29.1272 36.7509 28.5362 37.7829 27.6538 38.5269C26.7713 39.2709 25.6542 39.6789 24.5 39.6789C23.3458 39.6789 22.2287 39.2709 21.3462 38.5269C20.4638 37.7829 19.8728 36.7509 19.6777 35.6132C19.4826 34.4756 19.696 33.3056 20.2801 32.3101C20.8643 31.3146 21.7815 30.5577 22.8698 30.1731V22.0092C22.2228 21.7806 21.6311 21.4184 21.1332 20.9461C20.6353 20.4738 20.2424 19.9021 19.98 19.268C19.7176 18.6339 19.5915 17.9517 19.6101 17.2657C19.6286 16.5797 19.7914 15.9053 20.0877 15.2863L15.1971 10.3958C15.0363 10.2371 14.5668 9.74588 14.0669 9.21988L0.360325 22.9264C0.0875838 23.1989 -0.12878 23.5225 -0.276399 23.8787C-0.424019 24.2349 -0.5 24.6166 -0.5 25.0022C-0.5 25.3877 -0.424019 25.7695 -0.276399 26.1257C-0.12878 26.4818 0.0875838 26.8054 0.360325 27.0779L22.4242 49.1397C22.6968 49.4124 23.0203 49.6288 23.3765 49.7764C23.7327 49.924 24.1145 50 24.5 50C24.8856 50 25.2673 49.924 25.6235 49.7764C25.9797 49.6288 26.3033 49.4124 26.5758 49.1397L48.6397 27.0779C48.9124 26.8054 49.1288 26.4818 49.2764 26.1257C49.424 25.7695 49.5 25.3877 49.5 25.0022C49.5 24.6166 49.424 24.2349 49.2764 23.8787C49.1288 23.5225 48.9124 23.1989 48.6397 22.9264L26.5758 0.860325ZM24.5 33.1531C24.0676 33.1531 23.653 33.3248 23.3473 33.6305C23.0416 33.9362 22.8698 34.3509 22.8698 34.7832C22.8698 35.2156 23.0416 35.6302 23.3473 35.936C23.653 36.2417 24.0676 36.4134 24.5 36.4134C24.9324 36.4134 25.347 36.2417 25.6527 35.936C25.9584 35.6302 26.1302 35.2156 26.1302 34.7832C26.1302 34.3509 25.9584 33.9362 25.6527 33.6305C25.347 33.3248 24.9324 33.1531 24.5 33.1531ZM26.1302 17.3947C26.1302 17.827 25.9584 18.2417 25.6527 18.5474C25.347 18.8531 24.9324 19.0249 24.5 19.0249C24.0676 19.0249 23.653 18.8531 23.3473 18.5474C23.0416 18.2417 22.8698 17.827 22.8698 17.3947C22.8698 16.9623 23.0416 16.5477 23.3473 16.242C23.653 15.9362 24.0676 15.7645 24.5 15.7645C24.9324 15.7645 25.347 15.9362 25.6527 16.242C25.9584 16.5477 26.1302 16.9623 26.1302 17.3947ZM32.1075 26.6324C32.1075 26.2 32.2793 25.7854 32.585 25.4796C32.8907 25.1739 33.3053 25.0022 33.7377 25.0022C34.17 25.0022 34.5847 25.1739 34.8904 25.4796C35.1961 25.7854 35.3679 26.2 35.3679 26.6324C35.3679 27.0647 35.1961 27.4793 34.8904 27.7851C34.5847 28.0908 34.17 28.2625 33.7377 28.2625C33.3053 28.2625 32.8907 28.0908 32.585 27.7851C32.2793 27.4793 32.1075 27.0647 32.1075 26.6324Z" fill="#7B3C0F"/>
</g>
<defs>
<clipPath id="clip0_7_268">
<rect width="49" height="50" fill="white"/>
</clipPath>
</defs>
</svg>
