<svg width="50" height="50" viewBox="0 0 50 50" fill="none" xmlns="http://www.w3.org/2000/svg">
<path fill-rule="evenodd" clip-rule="evenodd" d="M25.9179 3.125C25.6353 3.125 25.3437 3.1396 25.0448 3.16328C17.3398 3.77026 19.3832 11.9254 19.2665 14.6432C19.1262 16.6355 18.7197 18.2049 17.3508 20.1498C15.7376 22.0656 13.4737 25.1625 12.4001 28.3906C11.8934 29.9072 11.6528 31.4602 11.877 32.9275C11.7931 32.9946 11.7242 33.0784 11.6747 33.1736C11.2007 33.6621 10.8562 34.2691 10.468 34.7029C10.1052 35.0657 9.58388 35.1896 9.01518 35.4321C8.44472 35.68 7.81582 35.9224 7.44033 36.6733C7.27627 37.016 7.19243 37.3896 7.19971 37.7688C7.19971 38.1316 7.24892 38.4998 7.29995 38.7458C7.40566 39.4731 7.51138 40.0746 7.37104 40.5139C6.91899 41.7534 6.8625 42.6028 7.17964 43.2207C7.49682 43.8296 8.15483 44.0757 8.89126 44.3163C10.3695 44.6808 12.3728 44.5623 13.9495 45.4081C15.6374 46.2594 17.3508 46.6312 18.7179 46.2648C19.1907 46.1615 19.6341 45.9529 20.0153 45.6547C20.3965 45.3565 20.7057 44.9763 20.9198 44.5423C21.9898 44.5368 23.1619 44.0519 25.0393 43.9335C26.3134 43.8278 27.9084 44.4202 29.7385 44.2962C29.784 44.5423 29.8533 44.6589 29.9462 44.905L29.9517 44.9105C30.6644 46.3286 31.9805 46.9739 33.3858 46.8627C34.7912 46.7533 36.2877 45.8856 37.4998 44.4821C38.65 43.0877 40.5676 42.5062 41.8345 41.7425C42.4687 41.3797 42.9809 40.8876 43.0174 40.1876C43.0594 39.4585 42.6547 38.7076 41.716 37.6777V37.5009L41.7105 37.4954C41.4006 37.1309 41.2548 36.5202 41.0944 35.8075C40.9394 35.0766 40.7626 34.3748 40.1976 33.9009H40.1921C40.0846 33.8024 39.9679 33.7788 39.8494 33.6548C39.7475 33.5836 39.6273 33.5431 39.5031 33.5381C40.2888 31.2086 39.9843 28.89 39.1878 26.8047C38.2162 24.2346 36.5174 21.9962 35.2232 20.456C33.7723 18.6241 32.3505 16.8888 32.3778 14.315C32.427 10.3924 32.8099 3.13594 25.9179 3.125ZM26.8821 9.33154H26.9058C27.2941 9.33154 27.6277 9.44458 27.9703 9.69248C28.3185 9.93857 28.5719 10.2977 28.7705 10.6641C28.962 11.1361 29.0585 11.5007 29.0731 11.9837C29.0731 11.9473 29.0841 11.9108 29.0841 11.8762V12.0658C29.08 12.0534 29.0776 12.0405 29.0767 12.0275L29.0695 11.9837C29.0657 12.4267 28.9727 12.8644 28.796 13.2706C28.7109 13.4991 28.5786 13.7072 28.4079 13.8812C28.3562 13.8521 28.3026 13.8265 28.2474 13.8047C28.056 13.7227 27.8847 13.688 27.7279 13.5623C27.5986 13.5106 27.465 13.4704 27.3287 13.442C27.4181 13.3344 27.593 13.1996 27.6605 13.0811C27.7571 12.8478 27.8099 12.5999 27.8209 12.3483V12.3136C27.825 12.0661 27.7874 11.8196 27.7097 11.5846C27.6277 11.3385 27.5256 11.2182 27.3761 10.9757C27.223 10.8554 27.0717 10.7351 26.8894 10.7351H26.8602C26.6908 10.7351 26.5394 10.7898 26.3827 10.9757C26.2097 11.1446 26.0812 11.3538 26.009 11.5846C25.9122 11.8162 25.8566 12.0629 25.845 12.3137V12.3483C25.8486 12.5105 25.8596 12.6746 25.8814 12.835C25.5296 12.7129 25.083 12.5889 24.775 12.4668C24.7567 12.3467 24.7457 12.2255 24.7422 12.104V12.0676C24.7276 11.5858 24.821 11.1068 25.0156 10.6659C25.165 10.2658 25.44 9.92496 25.7994 9.69433C26.1112 9.4588 26.4914 9.33142 26.8821 9.33154ZM21.483 9.43911H21.5487C21.8075 9.43911 22.0409 9.52661 22.276 9.6852C22.5421 9.92036 22.7572 10.2102 22.903 10.5328C23.0671 10.8956 23.16 11.2638 23.1819 11.7486V11.7559C23.1946 12.0001 23.1928 12.1223 23.1783 12.2408V12.3866C23.1236 12.3993 23.0762 12.4194 23.0269 12.4303C22.7499 12.5306 22.5275 12.6764 22.3106 12.7949C22.3325 12.6327 22.3343 12.4686 22.3161 12.3082V12.2809C22.2942 12.0384 22.245 11.9181 22.1666 11.6739C22.1097 11.4881 22.0054 11.3204 21.864 11.1872C21.8191 11.1463 21.7664 11.1149 21.7091 11.0949C21.6518 11.0749 21.591 11.0666 21.5305 11.0705H21.4922C21.3628 11.0814 21.2552 11.1452 21.1531 11.3111C21.0368 11.4523 20.9612 11.6224 20.9344 11.8033C20.8849 12.0004 20.8707 12.2046 20.8925 12.4066V12.4321C20.9143 12.6782 20.9599 12.7985 21.0401 13.041C21.1222 13.2852 21.2169 13.4055 21.3409 13.5294C21.3609 13.5458 21.3791 13.5623 21.4028 13.5732C21.2752 13.6771 21.1896 13.7008 21.082 13.8211C21.0138 13.8813 20.9318 13.9239 20.8433 13.9451C20.6538 13.7169 20.486 13.4716 20.342 13.2123C20.1697 12.8292 20.0738 12.4163 20.0595 11.9965C20.0293 11.585 20.0788 11.1716 20.2053 10.7789C20.3057 10.4207 20.4816 10.0882 20.7211 9.80371C20.9544 9.56128 21.1951 9.43911 21.483 9.43911ZM23.9821 12.5488C24.5854 12.5488 25.3163 12.6673 26.1968 13.2761C26.7309 13.6407 27.1501 13.7665 28.1162 14.1292H28.1216C28.5865 14.3771 28.8599 14.6141 28.9929 14.8565V14.6177C29.0583 14.7503 29.0947 14.8952 29.0998 15.0429C29.1048 15.1906 29.0783 15.3377 29.0221 15.4744C28.7979 16.0413 28.0815 16.6483 27.0827 17.011V17.0147C26.5941 17.2608 26.1694 17.6216 25.67 17.8623C25.1669 18.1083 24.5982 18.3945 23.8253 18.349C23.5477 18.3634 23.27 18.3218 23.0087 18.2268C22.8068 18.117 22.6109 17.9965 22.4218 17.8659C22.0664 17.6198 21.7601 17.2607 21.3062 17.0183V17.0092H21.2971C20.568 16.5608 20.1743 16.0759 20.0467 15.7132C19.9209 15.2247 20.0376 14.8583 20.3985 14.6195C20.8068 14.3734 21.0912 14.1256 21.2789 14.0071C21.4685 13.8722 21.5395 13.8211 21.5997 13.7683H21.6034V13.7628C21.9114 13.3946 22.3981 12.908 23.1327 12.6673C23.3861 12.6017 23.6685 12.5488 23.9821 12.5488ZM29.0841 16.4551C29.7385 19.038 31.266 22.7893 32.2484 24.6084C32.7697 25.5818 33.8069 27.6324 34.2571 30.1205C34.5415 30.1114 34.8568 30.1533 35.1922 30.2372C36.3697 27.1913 34.197 23.9176 33.2072 23.008C32.8044 22.6416 32.7844 22.3974 32.983 22.3974C34.0566 23.3707 35.4711 25.2628 35.9833 27.4227C36.2184 28.398 36.2731 29.4352 36.0216 30.4668C36.1437 30.5179 36.2677 30.578 36.3953 30.589C38.2764 31.5623 38.9708 32.2987 38.6373 33.3906V33.3122C38.5261 33.3067 38.4185 33.3122 38.3074 33.3122H38.28C38.5553 32.461 37.9483 31.8084 36.3388 31.0811C34.6709 30.352 33.3385 30.4686 33.1106 31.9287C33.0978 32.0071 33.0887 32.049 33.0796 32.1748C32.9557 32.2167 32.8262 32.2714 32.6987 32.2915C31.9148 32.7799 31.492 33.5109 31.2532 34.4551C31.0162 35.4267 30.9433 36.5623 30.8795 37.8619V37.8673C30.8413 38.4762 30.5678 39.3948 30.298 40.3299C27.5639 42.2839 23.7725 43.1334 20.5479 40.9387C20.3457 40.5852 20.0995 40.2588 19.8152 39.9672C19.6795 39.7403 19.5106 39.5351 19.314 39.3584C19.6457 39.3584 19.93 39.3055 20.1615 39.2363C20.4236 39.1147 20.6287 38.8966 20.7339 38.6274C20.9308 38.1408 20.7339 37.3569 20.105 36.5076C19.4762 35.6563 18.408 34.6939 16.8459 33.7351C15.6976 33.0078 15.0486 32.1493 14.7497 31.1905C14.4489 30.2171 14.489 29.2127 14.7224 28.192C15.1689 26.2416 16.3137 24.3459 17.0446 23.1557C17.2396 23.0372 17.112 23.4018 16.3009 24.9311C15.579 26.2999 14.2211 29.4825 16.0785 31.9561C16.1487 30.1513 16.5484 28.3746 17.2579 26.7137C18.2859 24.3842 20.435 20.3267 20.6045 17.1113C20.6919 17.1769 21 17.3574 21.1312 17.4794C21.5286 17.7219 21.8239 18.0865 22.2067 18.3271C22.5913 18.6935 23.0762 18.9377 23.8035 18.9377C23.8746 18.9432 23.9402 18.9486 24.0058 18.9486C24.755 18.9486 25.3346 18.7044 25.8213 18.4602C26.3499 18.2159 26.771 17.8513 27.1702 17.7311H27.1792C28.0305 17.485 28.7031 16.9983 29.084 16.4551M33.0686 32.7836C33.136 33.8791 33.6938 35.053 34.6763 35.2935C35.7481 35.5378 37.2902 34.6866 37.941 33.8991L38.3255 33.8827C38.8997 33.8682 39.3773 33.901 39.8695 34.3694L39.8749 34.3749C40.254 34.7376 40.4308 35.3428 40.5876 35.9716C40.7426 36.7026 40.8683 37.3934 41.3331 37.9147C42.219 38.8753 42.5088 39.5662 42.4924 39.9927L42.4979 39.9818V40.0146L42.4924 39.9927C42.4651 40.4703 42.1552 40.7145 41.5847 41.0773C40.4363 41.8082 38.4021 42.3751 37.1061 43.9391C35.9796 45.2824 34.6071 46.0152 33.3949 46.11C32.1846 46.2066 31.1401 45.7454 30.5258 44.4731L30.5167 44.4677C30.1339 43.7367 30.298 42.5993 30.6188 41.3871C30.9396 40.1695 31.399 38.9355 31.4627 37.9275C31.5302 36.626 31.6013 35.4941 31.8182 34.6209C32.037 33.7734 32.3796 33.1682 32.9866 32.8273L33.0686 32.7873V32.7836ZM13.3552 32.8729H13.3734C13.47 32.8729 13.5648 32.882 13.6596 32.8984C14.345 32.9987 14.9465 33.5054 15.5243 34.2692L17.1831 37.3023L17.1885 37.3078C17.6314 38.2793 18.5629 39.2472 19.3558 40.2935C20.1469 41.3835 20.7594 42.355 20.6846 43.1553V43.1662C20.5807 44.5224 19.8115 45.2587 18.634 45.5248C17.4583 45.7709 15.8634 45.5285 14.2684 44.6791C12.504 43.702 10.4078 43.8242 9.06074 43.5818C8.38813 43.4615 7.94697 43.2154 7.74287 42.8508C7.54053 42.4881 7.53686 41.7554 7.96704 40.6088V40.6034L7.9707 40.5979C8.18398 39.9891 8.02539 39.2253 7.92148 38.5582C7.82124 37.8272 7.77016 37.2658 7.99985 36.8448C8.2915 36.2359 8.72168 36.1175 9.25576 35.8732C9.7935 35.6271 10.4242 35.505 10.9254 35.0183H10.9291V35.0129C11.3957 34.5244 11.7402 33.9174 12.1467 33.4853C12.493 33.119 12.8394 32.8729 13.3552 32.8729M26.4045 16.3329C25.6115 16.6993 24.6819 17.3081 23.6922 17.3081C22.7042 17.3081 21.9241 16.8214 21.3608 16.4587C21.0783 16.2144 20.8504 15.9702 20.6791 15.848C20.3802 15.6038 20.4166 15.2393 20.5442 15.2393C20.7429 15.2684 20.7793 15.4853 20.907 15.6056C21.0819 15.7259 21.2989 15.9684 21.565 16.2126C22.0954 16.5771 22.8045 17.0639 23.6903 17.0639C24.5744 17.0639 25.6098 16.5771 26.2386 16.2144C26.5941 15.9683 27.0497 15.6056 27.4198 15.3632C27.7041 15.1135 27.6913 14.8747 27.9283 14.8747C28.1635 14.9039 27.9903 15.1189 27.6604 15.4817C27.2561 15.7875 26.8363 16.0722 26.4026 16.3347V16.3329L26.4045 16.3329ZM24.4322 13.4457V13.4055C24.4213 13.3708 24.4559 13.329 24.4851 13.3144C24.62 13.236 24.8132 13.2651 24.959 13.3217C25.0738 13.3217 25.2506 13.4437 25.2325 13.5678C25.2215 13.6571 25.0775 13.688 24.9864 13.688C24.8861 13.688 24.8186 13.6097 24.7293 13.5641C24.6346 13.5313 24.4632 13.5495 24.4322 13.4456M23.4278 13.4456C23.3914 13.5513 23.2219 13.5349 23.1253 13.5659C23.0396 13.6114 22.9685 13.6898 22.8719 13.6898C22.7789 13.6898 22.6331 13.6552 22.6222 13.5659C22.6058 13.4456 22.7826 13.3234 22.8956 13.3234C23.0433 13.2669 23.231 13.2377 23.3677 13.3143C23.4024 13.3307 23.4333 13.369 23.4224 13.4055V13.4437H23.4279L23.4278 13.4456Z" fill="#7B3C0F"/>
</svg>
