<svg width="50" height="50" viewBox="0 0 50 50" fill="none" xmlns="http://www.w3.org/2000/svg">
<path d="M14.7295 40.3509C13.2456 40.3509 11.9792 39.8264 10.9302 38.7775C9.88121 37.7285 9.35672 36.462 9.35672 34.9781C9.35672 33.4942 9.88121 32.2278 10.9302 31.1788C11.9792 30.1298 13.2456 29.6053 14.7295 29.6053C15.1901 29.6053 15.6378 29.6629 16.0727 29.778C16.5077 29.8931 16.917 30.053 17.3008 30.2577L23.1725 24.386V20.1645C22.0468 19.8319 21.1257 19.1987 20.4094 18.2648C19.693 17.331 19.3348 16.25 19.3348 15.022C19.3348 13.5381 19.8593 12.2716 20.9083 11.2226C21.9572 10.1737 23.2237 9.64917 24.7076 9.64917C26.1915 9.64917 27.458 10.1737 28.5069 11.2226C29.5559 12.2716 30.0804 13.5381 30.0804 15.022C30.0804 16.25 29.7222 17.331 29.0058 18.2648C28.2895 19.1987 27.3684 19.8319 26.2427 20.1645V24.386L32.1528 30.2577C32.5365 30.053 32.9395 29.8931 33.3617 29.778C33.7838 29.6629 34.2251 29.6053 34.6857 29.6053C36.1696 29.6053 37.436 30.1298 38.485 31.1788C39.534 32.2278 40.0585 33.4942 40.0585 34.9781C40.0585 36.462 39.534 37.7285 38.485 38.7775C37.436 39.8264 36.1696 40.3509 34.6857 40.3509C33.2017 40.3509 31.9353 39.8264 30.8863 38.7775C29.8373 37.7285 29.3129 36.462 29.3129 34.9781C29.3129 34.5176 29.3704 34.0699 29.4856 33.6349C29.6007 33.2 29.7606 32.7906 29.9653 32.4068L24.7076 27.1492L19.4499 32.4068C19.6546 32.7906 19.8145 33.2 19.9296 33.6349C20.0448 34.0699 20.1023 34.5176 20.1023 34.9781C20.1023 36.462 19.5778 37.7285 18.5289 38.7775C17.4799 39.8264 16.2134 40.3509 14.7295 40.3509ZM34.6857 37.2807C35.3253 37.2807 35.869 37.0569 36.3167 36.6091C36.7644 36.1614 36.9883 35.6177 36.9883 34.9781C36.9883 34.3385 36.7644 33.7948 36.3167 33.3471C35.869 32.8994 35.3253 32.6755 34.6857 32.6755C34.046 32.6755 33.5024 32.8994 33.0546 33.3471C32.6069 33.7948 32.383 34.3385 32.383 34.9781C32.383 35.6177 32.6069 36.1614 33.0546 36.6091C33.5024 37.0569 34.046 37.2807 34.6857 37.2807ZM24.7076 17.3246C25.3472 17.3246 25.8909 17.1007 26.3386 16.653C26.7864 16.2053 27.0102 15.6616 27.0102 15.022C27.0102 14.3824 26.7864 13.8387 26.3386 13.3909C25.8909 12.9432 25.3472 12.7193 24.7076 12.7193C24.068 12.7193 23.5243 12.9432 23.0766 13.3909C22.6288 13.8387 22.405 14.3824 22.405 15.022C22.405 15.6616 22.6288 16.2053 23.0766 16.653C23.5243 17.1007 24.068 17.3246 24.7076 17.3246ZM14.7295 37.2807C15.3691 37.2807 15.9128 37.0569 16.3606 36.6091C16.8083 36.1614 17.0322 35.6177 17.0322 34.9781C17.0322 34.3385 16.8083 33.7948 16.3606 33.3471C15.9128 32.8994 15.3691 32.6755 14.7295 32.6755C14.0899 32.6755 13.5462 32.8994 13.0985 33.3471C12.6508 33.7948 12.4269 34.3385 12.4269 34.9781C12.4269 35.6177 12.6508 36.1614 13.0985 36.6091C13.5462 37.0569 14.0899 37.2807 14.7295 37.2807Z" fill="#7B3C0F"/>
</svg>
