<svg width="50" height="50" viewBox="0 0 50 50" fill="none" xmlns="http://www.w3.org/2000/svg">
<path d="M25.0198 3C12.7931 3 2.90106 12.8525 2.90106 25C2.90106 37.1475 12.7931 47 25.0198 47C29.0162 47 32.7356 45.9514 35.9802 44.1075L37.1316 47H46.0345L42.5485 38.3741C45.4054 34.6705 47.0989 30.0252 47.0989 25C47.0989 12.8525 37.2068 3 25.0198 3Z" fill="#7B3C0F"/>
<path d="M27.2633 14.3442C28.699 14.3442 29.8629 13.1803 29.8629 11.7445C29.8629 10.3088 28.699 9.1449 27.2633 9.1449C25.8275 9.1449 24.6636 10.3088 24.6636 11.7445C24.6636 13.1803 25.8275 14.3442 27.2633 14.3442Z" fill="#7B3C0F"/>
<path d="M37.1146 15.4545L22.3857 13.327L21.9722 15.4641L36.7011 17.5916L37.1146 15.4545Z" fill="#7B3C0F"/>
<path d="M38.3029 16.0972H35.7032V17.2447H38.3029V16.0972Z" fill="#7B3C0F"/>
<path d="M19.0845 6.60083C19.062 7.46738 17.5532 6.71281 17.4899 7.70083C15.8201 6.95694 17.6201 8.83644 17.4528 9.01054H17.4405L17.317 8.9982C17.2363 8.96939 17.1192 8.91946 16.9459 8.81262C15.7786 9.74248 15.7509 11.6734 14.548 12.7457C13.7606 14.4511 13.5667 16.299 12.989 18.0874C12.7049 19.7889 12.4549 21.4903 12.8779 23.1918C13.0049 24.5767 12.6052 26.4601 13.8671 27.4256C15.7386 28.9608 17.2937 30.9076 18.8527 32.7673C21.3138 35.7943 23.4822 39.0587 25.421 42.422C25.5492 41.5831 25.8602 44.1076 26.4221 44.2777C26.2274 43.0155 25.975 41.0094 25.8523 39.4504C25.2271 35.3749 23.221 31.695 22.4653 27.659C22.442 27.4889 22.4146 27.314 22.3909 27.1407V26.6342H22.3291C22.0815 24.64 21.9928 22.4795 23.441 20.9364C24.9209 19.4446 27.1248 19.0687 28.9014 18.032C29.2971 17.7982 29.7126 17.6087 30.136 17.4741C30.1395 17.4729 30.145 17.4753 30.1483 17.4741C31.3829 17.0931 32.7005 17.105 33.9825 17.3135C34.0015 17.3166 34.0252 17.3227 34.0442 17.3258C34.161 17.3453 34.2872 17.365 34.4027 17.3876C35.3405 17.471 37.2279 17.8386 37.5682 17.1897C36.2743 16.0858 34.4067 16.1649 32.82 15.7296C32.5703 15.6841 32.2621 15.6347 31.9534 15.6062L30.4063 15.26L30.0229 15.161V15.1734L24.4833 14.0971C24.3955 14.0172 24.2997 13.9353 24.2111 13.8748L29.5924 14.5435V14.5187C29.7823 14.5611 29.9707 14.5955 30.1622 14.6177V14.63L33.9687 15.3343C34.6255 15.5796 35.3258 15.7617 35.9827 15.8052C37.0669 15.9631 38.4478 17.5818 38.7999 17.6609C38.6254 15.9555 36.9244 15.1919 35.5118 14.6933C33.8618 13.8901 31.3967 13.9217 31.1197 11.7019C31.0501 11.5472 30.9816 11.3929 30.8974 11.2429L30.2563 10.3883L30.2811 10.3759C29.4027 9.33924 28.1681 8.58744 26.8545 8.29859C25.5527 7.84751 24.0886 7.40039 22.6998 7.22233C22.2329 8.59931 21.7106 6.13025 20.5868 6.86384C19.6016 6.98057 19.7361 7.24093 19.0041 6.61654L19.0845 6.60083ZM26.1672 10.6368C26.5241 10.6274 26.9309 10.693 27.3424 10.8346C28.4345 11.2121 29.1467 12.0098 28.937 12.6152C28.7273 13.2206 27.6669 13.4026 26.5748 13.0228C25.4827 12.6429 24.7705 11.8634 24.9802 11.2541C25.1112 10.8746 25.5737 10.6526 26.1672 10.6368Z" fill="#F2EFE5"/>
</svg>
