<svg width="100" height="100" viewBox="0 0 100 100" fill="none" xmlns="http://www.w3.org/2000/svg">
<mask id="path-1-outside-1_1_2" maskUnits="userSpaceOnUse" x="23" y="23" width="53" height="47" fill="black">
<rect fill="white" x="23" y="23" width="53" height="47"/>
<path d="M24.1562 66.5312H29.625V27.1562H24.1562V24.7188H72.5625V39.9375H70.4375L61.75 27.1562H51.1875V45.75H55.9062L60.0312 35.4375H62.0625V58.5625H60.0312L55.9062 48.1875H51.1875V66.5312H62.8438L71.9062 52.3125H74.0625V69H24.1562V66.5312Z"/>
</mask>
<path d="M24.1562 66.5312H29.625V27.1562H24.1562V24.7188H72.5625V39.9375H70.4375L61.75 27.1562H51.1875V45.75H55.9062L60.0312 35.4375H62.0625V58.5625H60.0312L55.9062 48.1875H51.1875V66.5312H62.8438L71.9062 52.3125H74.0625V69H24.1562V66.5312Z" fill="#7B3C0F"/>
<path d="M24.1562 66.5312V65.5312H23.1562V66.5312H24.1562ZM29.625 66.5312V67.5312H30.625V66.5312H29.625ZM29.625 27.1562H30.625V26.1562H29.625V27.1562ZM24.1562 27.1562H23.1562V28.1562H24.1562V27.1562ZM24.1562 24.7188V23.7188H23.1562V24.7188H24.1562ZM72.5625 24.7188H73.5625V23.7188H72.5625V24.7188ZM72.5625 39.9375V40.9375H73.5625V39.9375H72.5625ZM70.4375 39.9375L69.6105 40.4996L69.9081 40.9375H70.4375V39.9375ZM61.75 27.1562L62.577 26.5941L62.2794 26.1562H61.75V27.1562ZM51.1875 27.1562V26.1562H50.1875V27.1562H51.1875ZM51.1875 45.75H50.1875V46.75H51.1875V45.75ZM55.9062 45.75V46.75H56.5833L56.8347 46.1214L55.9062 45.75ZM60.0312 35.4375V34.4375H59.3542L59.1028 35.0661L60.0312 35.4375ZM62.0625 35.4375H63.0625V34.4375H62.0625V35.4375ZM62.0625 58.5625V59.5625H63.0625V58.5625H62.0625ZM60.0312 58.5625L59.102 58.932L59.3527 59.5625H60.0312V58.5625ZM55.9062 48.1875L56.8355 47.818L56.5848 47.1875H55.9062V48.1875ZM51.1875 48.1875V47.1875H50.1875V48.1875H51.1875ZM51.1875 66.5312H50.1875V67.5312H51.1875V66.5312ZM62.8438 66.5312V67.5312H63.3922L63.687 67.0687L62.8438 66.5312ZM71.9062 52.3125V51.3125H71.3578L71.063 51.775L71.9062 52.3125ZM74.0625 52.3125H75.0625V51.3125H74.0625V52.3125ZM74.0625 69V70H75.0625V69H74.0625ZM24.1562 69H23.1562V70H24.1562V69ZM24.1562 66.5312V67.5312H29.625V66.5312V65.5312H24.1562V66.5312ZM29.625 66.5312H30.625V27.1562H29.625H28.625V66.5312H29.625ZM29.625 27.1562V26.1562H24.1562V27.1562V28.1562H29.625V27.1562ZM24.1562 27.1562H25.1562V24.7188H24.1562H23.1562V27.1562H24.1562ZM24.1562 24.7188V25.7188H72.5625V24.7188V23.7188H24.1562V24.7188ZM72.5625 24.7188H71.5625V39.9375H72.5625H73.5625V24.7188H72.5625ZM72.5625 39.9375V38.9375H70.4375V39.9375V40.9375H72.5625V39.9375ZM70.4375 39.9375L71.2645 39.3754L62.577 26.5941L61.75 27.1562L60.923 27.7184L69.6105 40.4996L70.4375 39.9375ZM61.75 27.1562V26.1562H51.1875V27.1562V28.1562H61.75V27.1562ZM51.1875 27.1562H50.1875V45.75H51.1875H52.1875V27.1562H51.1875ZM51.1875 45.75V46.75H55.9062V45.75V44.75H51.1875V45.75ZM55.9062 45.75L56.8347 46.1214L60.9597 35.8089L60.0312 35.4375L59.1028 35.0661L54.9778 45.3786L55.9062 45.75ZM60.0312 35.4375V36.4375H62.0625V35.4375V34.4375H60.0312V35.4375ZM62.0625 35.4375H61.0625V58.5625H62.0625H63.0625V35.4375H62.0625ZM62.0625 58.5625V57.5625H60.0312V58.5625V59.5625H62.0625V58.5625ZM60.0312 58.5625L60.9605 58.193L56.8355 47.818L55.9062 48.1875L54.977 48.557L59.102 58.932L60.0312 58.5625ZM55.9062 48.1875V47.1875H51.1875V48.1875V49.1875H55.9062V48.1875ZM51.1875 48.1875H50.1875V66.5312H51.1875H52.1875V48.1875H51.1875ZM51.1875 66.5312V67.5312H62.8438V66.5312V65.5312H51.1875V66.5312ZM62.8438 66.5312L63.687 67.0687L72.7495 52.85L71.9062 52.3125L71.063 51.775L62.0005 65.9938L62.8438 66.5312ZM71.9062 52.3125V53.3125H74.0625V52.3125V51.3125H71.9062V52.3125ZM74.0625 52.3125H73.0625V69H74.0625H75.0625V52.3125H74.0625ZM74.0625 69V68H24.1562V69V70H74.0625V69ZM24.1562 69H25.1562V66.5312H24.1562H23.1562V69H24.1562Z" fill="#7B3C0F" mask="url(#path-1-outside-1_1_2)"/>
</svg>
