<svg width="1280" height="134" viewBox="0 0 1280 134" fill="none" xmlns="http://www.w3.org/2000/svg">
<path d="M1280 0C1280 26.5387 981.962 134 628.5 134C275.038 134 0 26.5387 0 0C279 0.000143068 275.038 0.00010134 628.5 0.00010134C981.962 0.00010134 849 0.00010134 1280 0Z" fill="#FDF9F8"/>
<path d="M1280 0C1280 21.5874 981.962 109 628.5 109C275.038 109 0 21.5874 0 0C279 0.000143068 275.038 0.00010134 628.5 0.00010134C981.962 0.00010134 849 0.00010134 1280 0Z" fill="#EACDC2"/>
<path d="M1280 0C1280 16.8342 981.962 85 628.5 85C275.038 85 0 16.8342 0 0C279 0.000143068 275.038 0.00010134 628.5 0.00010134C981.962 0.00010134 849 0.00010134 1280 0Z" fill="#7F534B"/>
</svg>
