<svg width="39" height="38" viewBox="0 0 39 38" fill="none" xmlns="http://www.w3.org/2000/svg">
<g clip-path="url(#clip0_4_35)">
<path fill-rule="evenodd" clip-rule="evenodd" d="M19.3381 0C8.64461 0 0 8.70833 0 19.4817C0 28.0935 5.5389 35.3831 13.2228 37.9632C14.1835 38.1571 14.5354 37.544 14.5354 37.0282C14.5354 36.5766 14.5037 35.0285 14.5037 33.4154C9.12436 34.5768 8.00415 31.0931 8.00415 31.0931C7.13965 28.8353 5.85873 28.255 5.85873 28.255C4.09806 27.0615 5.98698 27.0615 5.98698 27.0615C7.94002 27.1906 8.96484 29.0613 8.96484 29.0613C10.6934 32.0284 13.4789 31.1901 14.5995 30.6739C14.7594 29.4159 15.272 28.5451 15.8163 28.0614C11.5259 27.6098 7.0118 25.9326 7.0118 18.4494C7.0118 16.3206 7.77971 14.5789 8.9965 13.2244C8.80453 12.7407 8.132 10.7405 9.18888 8.06352C9.18888 8.06352 10.8217 7.54735 14.5033 10.0633C16.0796 9.63682 17.7051 9.41989 19.3381 9.41806C20.9709 9.41806 22.6353 9.64408 24.1724 10.0633C27.8544 7.54735 29.4872 8.06352 29.4872 8.06352C30.5441 10.7405 29.8712 12.7407 29.6792 13.2244C30.9281 14.5789 31.6643 16.3206 31.6643 18.4494C31.6643 25.9326 27.1502 27.5773 22.8277 28.0614C23.5323 28.6742 24.1403 29.8351 24.1403 31.6738C24.1403 34.2863 24.1086 36.383 24.1086 37.0278C24.1086 37.544 24.4609 38.1571 25.4212 37.9636C33.1051 35.3827 38.644 28.0935 38.644 19.4817C38.6757 8.70833 29.9994 0 19.3381 0Z" fill="#7B3C0F"/>
</g>
<defs>
<clipPath id="clip0_4_35">
<rect width="38.7917" height="38" fill="white"/>
</clipPath>
</defs>
</svg>
