<svg width="39" height="38" viewBox="0 0 39 38" fill="none" xmlns="http://www.w3.org/2000/svg">
<g clip-path="url(#clip0_4_33)">
<path fill-rule="evenodd" clip-rule="evenodd" d="M0 13.6562V4.75C0 2.375 2.50605 0 4.84896 0H33.9427C36.3672 0 38.7917 2.375 38.7917 4.75V33.25C38.7917 35.625 36.3672 38 33.9427 38H4.84896C2.42448 38 0 35.625 0 33.25V13.6562ZM27.4463 31.9965H32.6631V21.4985C32.6631 17.0566 30.0928 14.9089 26.5025 14.9089C22.9106 14.9089 21.3989 17.649 21.3989 17.649V15.4155H16.3714V31.9965H21.3989V23.2925C21.3989 20.9603 22.4949 19.5725 24.5925 19.5725C26.5207 19.5725 27.4463 20.9061 27.4463 23.2925V31.9965ZM7.27344 10.1847C7.27344 11.8743 8.66111 13.2444 10.3736 13.2444C12.0861 13.2444 13.4729 11.8743 13.4729 10.1847C13.4729 8.49502 12.0861 7.125 10.3736 7.125C8.66111 7.125 7.27344 8.49502 7.27344 10.1847ZM13.02 31.9965H7.77759V15.4155H13.02V31.9965Z" fill="#7B3C0F"/>
</g>
<defs>
<clipPath id="clip0_4_33">
<rect width="38.7917" height="38" fill="white"/>
</clipPath>
</defs>
</svg>
