<svg width="50" height="38" viewBox="0 0 50 38" fill="none" xmlns="http://www.w3.org/2000/svg">
<g clip-path="url(#clip0_4_37)">
<path d="M4.96923 38C3.60269 38 2.43285 37.5349 1.45971 36.6047C0.48657 35.6745 0 34.5562 0 33.25V4.75C0 3.44375 0.48657 2.32552 1.45971 1.39531C2.43285 0.465104 3.60269 0 4.96923 0H44.7231C46.0896 0 47.2595 0.465104 48.2326 1.39531C49.2057 2.32552 49.6923 3.44375 49.6923 4.75V33.25C49.6923 34.5562 49.2057 35.6745 48.2326 36.6047C47.2595 37.5349 46.0896 38 44.7231 38H4.96923ZM24.8462 21.375L4.96923 9.5V33.25H44.7231V9.5L24.8462 21.375ZM24.8462 16.625L44.7231 4.75H4.96923L24.8462 16.625ZM4.96923 9.5V4.75V33.25V9.5Z" fill="#7B3C0F"/>
</g>
<defs>
<clipPath id="clip0_4_37">
<rect width="49.3563" height="38" fill="white"/>
</clipPath>
</defs>
</svg>
